# xmcd
#
# Track frame offsets:
#	150
#	8795
#	21187
#	33941
#	43604
#	55053
#	67358
#	76628
#	85117
#	97769
#	119147
#	135628
#	146385
#	156379
#	165878
#	175936
#	190768
#	204423
#	217793
#	228213
#	244277
#	256052
#	265149
#	276355
#	287885
#	310963
#	332839
#
# Disc length: 4661 seconds
#
# Revision: 2
# Processed by: cddbd v1.5.2PL0 Copyright (c) Steve Scherf et al.
# Submitted via: EZCDAudioConverter 2.1.7.1
#
DISCID=7412331b
DTITLE=V/A - The In Crowd (RPM)
DYEAR=2001
DGENRE=
TTITLE0=The In Crowd - Blow Up
TTITLE1=The Yardbirds - Stroll On
TTITLE2=Rod Stewart - Shake
TTITLE3=The In Crowd - That's How Strong My Love Is
TTITLE4=Chris Farlowe and The Thunderbirds - Hey Hey Hey Hey
TTITLE5=Spencer Davis Group - Keep On Running [Live]
TTITLE6=The In Crowd - Finger Poppin'
TTITLE7=Four and 1 - Don't Lie To Me
TTITLE8=The Artwoods - I Take What I Want
TTITLE9=Gary Farr and The T-Bones - Get The Money
TTITLE10=The Action - I'll Keep Holding On
TTITLE11=The Untamed - My Baby Is Gone
TTITLE12=Manish Boys - Take My Tip
TTITLE13=A Wild Uncertainty - A Man With Money
TTITLE14=Rocking Vickers - It's Alright
TTITLE15=The Eyes - I'm Rowed Out
TTITLE16=Les Fleur Des Lys - Mud In Your Eye
TTITLE17=John's Children - The Love I Thought I'd Found
TTITLE18=The In Crowd - You're On Your Own
TTITLE19=Steampacket - Can I Get A Witness
TTITLE20=Four and 1 - Time Is On My Side
TTITLE21=Rupert and The Red Devils - It's For You
TTITLE22=Brian Auger and The Trinity - Tiger
TTITLE23=Julie Driscoll - Don't Do It No More
TTITLE24=Graham Bond Organisation - Big Boss Man [Live]
TTITLE25=Episode Six - Slow Down [Live]
TTITLE26=Data
EXTD=
EXTT0=
EXTT1=
EXTT2=
EXTT3=
EXTT4=
EXTT5=
EXTT6=
EXTT7=
EXTT8=
EXTT9=
EXTT10=
EXTT11=
EXTT12=
EXTT13=
EXTT14=
EXTT15=
EXTT16=
EXTT17=
EXTT18=
EXTT19=
EXTT20=
EXTT21=
EXTT22=
EXTT23=
EXTT24=
EXTT25=
EXTT26=
PLAYORDER=
